<?xml version="1.0" encoding="UTF-8" standalone="no"?>
<!DOCTYPE svg PUBLIC "-//W3C//DTD SVG 1.1//EN"
 "http://www.w3.org/Graphics/SVG/1.1/DTD/svg11.dtd">
<!-- Generated by graphviz version 2.40.1 (20161225.0304)
 -->
<!-- Title: dependencies Pages: 1 -->
<svg width="525pt" height="284pt"
 viewBox="0.00 0.00 525.00 284.00" xmlns="http://www.w3.org/2000/svg" xmlns:xlink="http://www.w3.org/1999/xlink">
<g id="graph0" class="graph" transform="scale(1 1) rotate(0) translate(4 280)">
<title>dependencies</title>
<polygon fill="#ffffff" stroke="transparent" points="-4,4 -4,-280 521,-280 521,4 -4,4"/>
<text text-anchor="start" x="237.5091" y="-42.4" font-family="sans-serif" font-weight="bold" font-size="14.00" fill="#000000">Legend</text>
<polygon fill="#ffffb3" stroke="transparent" points="24.5,-10 24.5,-30 44.5,-30 44.5,-10 24.5,-10"/>
<text text-anchor="start" x="48.129" y="-15.4" font-family="sans-serif" font-size="14.00" fill="#000000"> &#160;Declarations</text>
<polygon fill="#8dd3c7" stroke="transparent" points="137.5,-10 137.5,-30 157.5,-30 157.5,-10 137.5,-10"/>
<text text-anchor="start" x="161.2251" y="-15.4" font-family="sans-serif" font-size="14.00" fill="#000000"> &#160;Module</text>
<polygon fill="#80b1d3" stroke="transparent" points="223.5,-10 223.5,-30 243.5,-30 243.5,-10 223.5,-10"/>
<text text-anchor="start" x="247.2812" y="-15.4" font-family="sans-serif" font-size="14.00" fill="#000000"> &#160;Bootstrap</text>
<polygon fill="#fdb462" stroke="transparent" points="320.5,-10 320.5,-30 340.5,-30 340.5,-10 320.5,-10"/>
<text text-anchor="start" x="344.1732" y="-15.4" font-family="sans-serif" font-size="14.00" fill="#000000"> &#160;Providers</text>
<polygon fill="#fb8072" stroke="transparent" points="416.5,-10 416.5,-30 436.5,-30 436.5,-10 416.5,-10"/>
<text text-anchor="start" x="440.2258" y="-15.4" font-family="sans-serif" font-size="14.00" fill="#000000"> &#160;Exports</text>
<g id="clust1" class="cluster">
<title>cluster_NgxFormErrorsModule</title>
<polygon fill="none" stroke="#000000" stroke-dasharray="1,5" points="8,-70 8,-268 509,-268 509,-70 8,-70"/>
</g>
<g id="clust2" class="cluster">
<title>cluster_NgxFormErrorsModule_declarations</title>
<polygon fill="none" stroke="#000000" points="152,-78 152,-130 501,-130 501,-78 152,-78"/>
</g>
<g id="clust5" class="cluster">
<title>cluster_NgxFormErrorsModule_imports</title>
<polygon fill="none" stroke="#000000" points="16,-78 16,-130 144,-130 144,-78 16,-78"/>
</g>
<g id="clust6" class="cluster">
<title>cluster_NgxFormErrorsModule_exports</title>
<polygon fill="none" stroke="#000000" points="81,-208 81,-260 437,-260 437,-208 81,-208"/>
</g>
<!-- NgxErrorTemplateDirective -->
<g id="node1" class="node">
<title>NgxErrorTemplateDirective</title>
<polygon fill="#ffffb3" stroke="#000000" points="493.0925,-122 318.9075,-122 318.9075,-86 493.0925,-86 493.0925,-122"/>
<text text-anchor="middle" x="406" y="-99.8" font-family="Times,serif" font-size="14.00" fill="#000000">NgxErrorTemplateDirective</text>
</g>
<!-- NgxFormErrorsModule -->
<g id="node3" class="node">
<title>NgxFormErrorsModule</title>
<polygon fill="#8dd3c7" stroke="#000000" points="304.4692,-187 301.4692,-191 280.4692,-191 277.4692,-187 155.5308,-187 155.5308,-151 304.4692,-151 304.4692,-187"/>
<text text-anchor="middle" x="230" y="-164.8" font-family="Times,serif" font-size="14.00" fill="#000000">NgxFormErrorsModule</text>
</g>
<!-- NgxErrorTemplateDirective&#45;&gt;NgxFormErrorsModule -->
<g id="edge1" class="edge">
<title>NgxErrorTemplateDirective&#45;&gt;NgxFormErrorsModule</title>
<path fill="none" stroke="#000000" d="M373.875,-122.1061C373.875,-141.3391 373.875,-169 373.875,-169 373.875,-169 314.8873,-169 314.8873,-169"/>
<polygon fill="#000000" stroke="#000000" points="314.8874,-165.5001 304.8873,-169 314.8873,-172.5001 314.8874,-165.5001"/>
</g>
<!-- NgxErrorsComponent -->
<g id="node2" class="node">
<title>NgxErrorsComponent</title>
<polygon fill="#ffffb3" stroke="#000000" points="300.4186,-122 159.5814,-122 159.5814,-86 300.4186,-86 300.4186,-122"/>
<text text-anchor="middle" x="230" y="-99.8" font-family="Times,serif" font-size="14.00" fill="#000000">NgxErrorsComponent</text>
</g>
<!-- NgxErrorsComponent&#45;&gt;NgxFormErrorsModule -->
<g id="edge2" class="edge">
<title>NgxErrorsComponent&#45;&gt;NgxFormErrorsModule</title>
<path fill="none" stroke="#000000" d="M230,-122.1061C230,-122.1061 230,-140.991 230,-140.991"/>
<polygon fill="#000000" stroke="#000000" points="226.5001,-140.9909 230,-150.991 233.5001,-140.991 226.5001,-140.9909"/>
</g>
<!-- NgxErrorTemplateDirective  -->
<g id="node5" class="node">
<title>NgxErrorTemplateDirective </title>
<polygon fill="#fb8072" stroke="#000000" points="429.092,-252 250.908,-252 250.908,-216 429.092,-216 429.092,-252"/>
<text text-anchor="middle" x="340" y="-229.8" font-family="Times,serif" font-size="14.00" fill="#000000">NgxErrorTemplateDirective </text>
</g>
<!-- NgxFormErrorsModule&#45;&gt;NgxErrorTemplateDirective  -->
<g id="edge4" class="edge">
<title>NgxFormErrorsModule&#45;&gt;NgxErrorTemplateDirective </title>
<path fill="none" stroke="#000000" stroke-dasharray="5,2" d="M277.7193,-187.1061C277.7193,-187.1061 277.7193,-205.991 277.7193,-205.991"/>
<polygon fill="#000000" stroke="#000000" points="274.2194,-205.9909 277.7193,-215.991 281.2194,-205.991 274.2194,-205.9909"/>
</g>
<!-- NgxErrorsComponent  -->
<g id="node6" class="node">
<title>NgxErrorsComponent </title>
<polygon fill="#fb8072" stroke="#000000" points="232.918,-252 89.082,-252 89.082,-216 232.918,-216 232.918,-252"/>
<text text-anchor="middle" x="161" y="-229.8" font-family="Times,serif" font-size="14.00" fill="#000000">NgxErrorsComponent </text>
</g>
<!-- NgxFormErrorsModule&#45;&gt;NgxErrorsComponent  -->
<g id="edge5" class="edge">
<title>NgxFormErrorsModule&#45;&gt;NgxErrorsComponent </title>
<path fill="none" stroke="#000000" stroke-dasharray="5,2" d="M194.2372,-187.1061C194.2372,-187.1061 194.2372,-205.991 194.2372,-205.991"/>
<polygon fill="#000000" stroke="#000000" points="190.7373,-205.9909 194.2372,-215.991 197.7373,-205.991 190.7373,-205.9909"/>
</g>
<!-- CommonModule -->
<g id="node4" class="node">
<title>CommonModule</title>
<polygon fill="#8dd3c7" stroke="#000000" points="135.6681,-122 132.6681,-126 111.6681,-126 108.6681,-122 24.3319,-122 24.3319,-86 135.6681,-86 135.6681,-122"/>
<text text-anchor="middle" x="80" y="-99.8" font-family="Times,serif" font-size="14.00" fill="#000000">CommonModule</text>
</g>
<!-- CommonModule&#45;&gt;NgxFormErrorsModule -->
<g id="edge3" class="edge">
<title>CommonModule&#45;&gt;NgxFormErrorsModule</title>
<path fill="none" stroke="#000000" d="M112.4374,-122.1061C112.4374,-141.3391 112.4374,-169 112.4374,-169 112.4374,-169 145.2128,-169 145.2128,-169"/>
<polygon fill="#000000" stroke="#000000" points="145.2128,-172.5001 155.2128,-169 145.2127,-165.5001 145.2128,-172.5001"/>
</g>
</g>
</svg>
