<?xml version="1.0" encoding="UTF-8" standalone="no"?>
<!DOCTYPE svg PUBLIC "-//W3C//DTD SVG 1.1//EN"
 "http://www.w3.org/Graphics/SVG/1.1/DTD/svg11.dtd">
<!-- Generated by graphviz version 2.40.1 (20161225.0304)
 -->
<!-- Title: dependencies Pages: 1 -->
<svg width="504pt" height="284pt"
 viewBox="0.00 0.00 504.00 284.00" xmlns="http://www.w3.org/2000/svg" xmlns:xlink="http://www.w3.org/1999/xlink">
<g id="graph0" class="graph" transform="scale(1 1) rotate(0) translate(4 280)">
<title>dependencies</title>
<polygon fill="#ffffff" stroke="transparent" points="-4,4 -4,-280 500,-280 500,4 -4,4"/>
<text text-anchor="start" x="227.0091" y="-42.4" font-family="sans-serif" font-weight="bold" font-size="14.00" fill="#000000">Legend</text>
<polygon fill="#ffffb3" stroke="transparent" points="14,-10 14,-30 34,-30 34,-10 14,-10"/>
<text text-anchor="start" x="37.629" y="-15.4" font-family="sans-serif" font-size="14.00" fill="#000000"> &#160;Declarations</text>
<polygon fill="#8dd3c7" stroke="transparent" points="127,-10 127,-30 147,-30 147,-10 127,-10"/>
<text text-anchor="start" x="150.7251" y="-15.4" font-family="sans-serif" font-size="14.00" fill="#000000"> &#160;Module</text>
<polygon fill="#80b1d3" stroke="transparent" points="213,-10 213,-30 233,-30 233,-10 213,-10"/>
<text text-anchor="start" x="236.7812" y="-15.4" font-family="sans-serif" font-size="14.00" fill="#000000"> &#160;Bootstrap</text>
<polygon fill="#fdb462" stroke="transparent" points="310,-10 310,-30 330,-30 330,-10 310,-10"/>
<text text-anchor="start" x="333.6732" y="-15.4" font-family="sans-serif" font-size="14.00" fill="#000000"> &#160;Providers</text>
<polygon fill="#fb8072" stroke="transparent" points="406,-10 406,-30 426,-30 426,-10 406,-10"/>
<text text-anchor="start" x="429.7258" y="-15.4" font-family="sans-serif" font-size="14.00" fill="#000000"> &#160;Exports</text>
<g id="clust1" class="cluster">
<title>cluster_NgxFormErrorsModule</title>
<polygon fill="none" stroke="#000000" stroke-dasharray="1,5" points="62,-70 62,-268 434,-268 434,-70 62,-70"/>
</g>
<g id="clust3" class="cluster">
<title>cluster_NgxFormErrorsModule_imports</title>
<polygon fill="none" stroke="#000000" points="175,-78 175,-130 303,-130 303,-78 175,-78"/>
</g>
<g id="clust4" class="cluster">
<title>cluster_NgxFormErrorsModule_exports</title>
<polygon fill="none" stroke="#000000" points="70,-208 70,-260 426,-260 426,-208 70,-208"/>
</g>
<!-- CommonModule -->
<g id="node1" class="node">
<title>CommonModule</title>
<polygon fill="#8dd3c7" stroke="#000000" points="294.6681,-122 291.6681,-126 270.6681,-126 267.6681,-122 183.3319,-122 183.3319,-86 294.6681,-86 294.6681,-122"/>
<text text-anchor="middle" x="239" y="-99.8" font-family="Times,serif" font-size="14.00" fill="#000000">CommonModule</text>
</g>
<!-- NgxFormErrorsModule -->
<g id="node2" class="node">
<title>NgxFormErrorsModule</title>
<polygon fill="#8dd3c7" stroke="#000000" points="313.4692,-187 310.4692,-191 289.4692,-191 286.4692,-187 164.5308,-187 164.5308,-151 313.4692,-151 313.4692,-187"/>
<text text-anchor="middle" x="239" y="-164.8" font-family="Times,serif" font-size="14.00" fill="#000000">NgxFormErrorsModule</text>
</g>
<!-- CommonModule&#45;&gt;NgxFormErrorsModule -->
<g id="edge1" class="edge">
<title>CommonModule&#45;&gt;NgxFormErrorsModule</title>
<path fill="none" stroke="#000000" d="M239,-122.1061C239,-122.1061 239,-140.991 239,-140.991"/>
<polygon fill="#000000" stroke="#000000" points="235.5001,-140.9909 239,-150.991 242.5001,-140.991 235.5001,-140.9909"/>
</g>
<!-- NgxErrorTemplateDirective  -->
<g id="node3" class="node">
<title>NgxErrorTemplateDirective </title>
<polygon fill="#fb8072" stroke="#000000" points="418.092,-252 239.908,-252 239.908,-216 418.092,-216 418.092,-252"/>
<text text-anchor="middle" x="329" y="-229.8" font-family="Times,serif" font-size="14.00" fill="#000000">NgxErrorTemplateDirective </text>
</g>
<!-- NgxFormErrorsModule&#45;&gt;NgxErrorTemplateDirective  -->
<g id="edge2" class="edge">
<title>NgxFormErrorsModule&#45;&gt;NgxErrorTemplateDirective </title>
<path fill="none" stroke="#000000" stroke-dasharray="5,2" d="M276.7193,-187.1061C276.7193,-187.1061 276.7193,-205.991 276.7193,-205.991"/>
<polygon fill="#000000" stroke="#000000" points="273.2194,-205.9909 276.7193,-215.991 280.2194,-205.991 273.2194,-205.9909"/>
</g>
<!-- NgxErrorsComponent  -->
<g id="node4" class="node">
<title>NgxErrorsComponent </title>
<polygon fill="#fb8072" stroke="#000000" points="221.918,-252 78.082,-252 78.082,-216 221.918,-216 221.918,-252"/>
<text text-anchor="middle" x="150" y="-229.8" font-family="Times,serif" font-size="14.00" fill="#000000">NgxErrorsComponent </text>
</g>
<!-- NgxFormErrorsModule&#45;&gt;NgxErrorsComponent  -->
<g id="edge3" class="edge">
<title>NgxFormErrorsModule&#45;&gt;NgxErrorsComponent </title>
<path fill="none" stroke="#000000" stroke-dasharray="5,2" d="M193.2372,-187.1061C193.2372,-187.1061 193.2372,-205.991 193.2372,-205.991"/>
<polygon fill="#000000" stroke="#000000" points="189.7373,-205.9909 193.2372,-215.991 196.7373,-205.991 189.7373,-205.9909"/>
</g>
</g>
</svg>
